<?xml version="1.0" encoding="UTF-8"?>
<svg version="1.1" xmlns="http://www.w3.org/2000/svg" width="394" height="114">
<path d="M0 0 C2.36667919 0.37132327 3.65376134 0.60199741 5.25415039 2.44165039 C5.61500732 3.07063232 5.97586426 3.69961426 6.34765625 4.34765625 C6.77876709 5.08274414 7.20987793 5.81783203 7.65405273 6.57519531 C8.11884033 7.39600586 8.58362793 8.21681641 9.0625 9.0625 C10.11683908 10.87129689 11.17155438 12.67987451 12.2265625 14.48828125 C13.10876465 16.01509521 13.10876465 16.01509521 14.00878906 17.57275391 C17.51735374 23.61164932 21.0966156 29.60864833 24.66671753 35.61129761 C25.91743453 37.71623019 27.16532941 39.82280956 28.41235352 41.92993164 C29.00562691 42.93093651 29.00562691 42.93093651 29.61088562 43.9521637 C30.3785385 45.24844217 31.14462426 46.54565018 31.90901184 47.84385681 C33.884377 51.18484283 35.9494101 54.43031651 38.12890625 57.640625 C40 61 40 61 39 66 C14.25 66 -10.5 66 -36 66 C-37.1355944 60.32202801 -36.74912404 59.75308357 -33.90625 55.046875 C-33.5679718 54.47762299 -33.2296936 53.90837097 -32.88116455 53.3218689 C-31.76781786 51.45595836 -30.63430247 49.60323242 -29.5 47.75 C-28.72299115 46.45764483 -27.94728848 45.1645035 -27.17285156 43.87060547 C-25.58059783 41.21532812 -23.9801923 38.56523456 -22.37304688 35.91894531 C-20.12690611 32.2171756 -17.91088551 28.49818842 -15.703125 24.7734375 C-14.38587413 22.55701973 -13.06818735 20.34086094 -11.75 18.125 C-10.84024414 16.59504395 -10.84024414 16.59504395 -9.91210938 15.03417969 C-6.80452543 9.85312924 -3.59723935 4.85492077 0 0 Z " fill="#323231" transform="translate(37,19)"/>
<path d="M0 0 C1.75415039 0.11499023 1.75415039 0.11499023 4 1 C5.49289633 3.04319821 6.71320641 4.96295355 7.93359375 7.16015625 C8.29340836 7.78345322 8.65322296 8.40675018 9.02394104 9.04893494 C10.17394339 11.04677641 11.30604745 13.0541055 12.4375 15.0625 C13.56674489 17.03922182 14.6995538 19.01386944 15.83267212 20.9883728 C16.56202872 22.26154738 17.28893074 23.53613149 18.01327515 24.81216431 C19.93271808 28.1864527 21.92012569 31.49122637 24.03515625 34.74609375 C26 38 26 38 26 41 C21.77964845 39.5024559 18.04193318 37.37264666 14.16015625 35.17578125 C11.83689443 33.91122102 9.49285116 32.88456009 7 32 C7.2475 32.7734375 7.2475 32.7734375 7.5 33.5625 C8.18116668 36.88318754 8.36248182 39.61683631 8 43 C5.875 45.5 5.875 45.5 3 47 C-0.125 47 -0.125 47 -3 46 C-5.20797249 43.74634532 -5.98244021 42.60997163 -6.07421875 39.421875 C-5.94660156 38.54015625 -5.81898437 37.6584375 -5.6875 36.75 C-5.56761719 35.85796875 -5.44773437 34.9659375 -5.32421875 34.046875 C-5.21722656 33.37140625 -5.11023438 32.6959375 -5 32 C-14.13310005 35.70969251 -14.13310005 35.70969251 -23 40 C-21.71962284 36.64063127 -20.27337291 33.53380914 -18.49609375 30.41015625 C-17.76181152 29.11887817 -17.76181152 29.11887817 -17.01269531 27.80151367 C-16.49288086 26.89763916 -15.97306641 25.99376465 -15.4375 25.0625 C-14.64037598 23.67091675 -14.64037598 23.67091675 -13.82714844 22.2512207 C-9.45514264 14.67364556 -4.84634103 7.28174978 0 0 Z " fill="#555857" transform="translate(37,24)"/>
<path d="M0 0 C2.36667919 0.37132327 3.65376134 0.60199741 5.25415039 2.44165039 C5.61500732 3.07063232 5.97586426 3.69961426 6.34765625 4.34765625 C6.77876709 5.08274414 7.20987793 5.81783203 7.65405273 6.57519531 C8.11884033 7.39600586 8.58362793 8.21681641 9.0625 9.0625 C10.11683908 10.87129689 11.17155438 12.67987451 12.2265625 14.48828125 C13.10876465 16.01509521 13.10876465 16.01509521 14.00878906 17.57275391 C17.51735374 23.61164932 21.0966156 29.60864833 24.66671753 35.61129761 C25.91743453 37.71623019 27.16532941 39.82280956 28.41235352 41.92993164 C29.00562691 42.93093651 29.00562691 42.93093651 29.61088562 43.9521637 C30.3785385 45.24844217 31.14462426 46.54565018 31.90901184 47.84385681 C33.884377 51.18484283 35.9494101 54.43031651 38.12890625 57.640625 C40 61 40 61 39 66 C14.25 66 -10.5 66 -36 66 C-37.1355944 60.32202801 -36.74912404 59.75308357 -33.90625 55.046875 C-33.5679718 54.47762299 -33.2296936 53.90837097 -32.88116455 53.3218689 C-31.76781786 51.45595836 -30.63430247 49.60323242 -29.5 47.75 C-28.72299115 46.45764483 -27.94728848 45.1645035 -27.17285156 43.87060547 C-25.58059783 41.21532812 -23.9801923 38.56523456 -22.37304688 35.91894531 C-20.12690611 32.2171756 -17.91088551 28.49818842 -15.703125 24.7734375 C-14.38587413 22.55701973 -13.06818735 20.34086094 -11.75 18.125 C-10.84024414 16.59504395 -10.84024414 16.59504395 -9.91210938 15.03417969 C-6.80452543 9.85312924 -3.59723935 4.85492077 0 0 Z M0 5 C-1.61641025 7.17809721 -2.99833135 9.29908606 -4.375 11.625 C-4.79692627 12.32125488 -5.21885254 13.01750977 -5.65356445 13.73486328 C-6.58983538 15.28560934 -7.52058418 16.83969832 -8.44677734 18.39648438 C-10.14203263 21.23807544 -11.86164827 24.06418315 -13.58203125 26.890625 C-14.78497902 28.88473853 -15.98681306 30.87952437 -17.1875 32.875 C-17.77644043 33.8438916 -18.36538086 34.8127832 -18.97216797 35.81103516 C-19.51115723 36.71644043 -20.05014648 37.6218457 -20.60546875 38.5546875 C-21.09168701 39.36405762 -21.57790527 40.17342773 -22.07885742 41.00732422 C-22.38283447 41.66490723 -22.68681152 42.32249023 -23 43 C-22.67 43.66 -22.34 44.32 -22 45 C-23.3085494 48.92564819 -25.45411973 52.11819342 -27.625 55.625 C-29.11943134 58.02220583 -29.11943134 58.02220583 -30 61 C-9.21 61 11.58 61 33 61 C31.70641206 57.76603015 30.59717733 55.11520147 28.875 52.1875 C28.25625 51.135625 27.6375 50.08375 27 49 C27.99 49.66 28.98 50.32 30 51 C28.53030414 46.97806539 26.59949494 43.49370255 24.3671875 39.84375 C24.01165802 39.26016724 23.65612854 38.67658447 23.28982544 38.07531738 C22.15510078 36.21468241 21.01513802 34.35732161 19.875 32.5 C19.13246851 31.28406416 18.39027825 30.06791988 17.6484375 28.8515625 C16.17509589 26.43626433 14.69442857 24.02565966 13.20996094 21.6171875 C11.69914674 19.15979685 10.2228362 16.68541138 8.76660156 14.1953125 C8.40768829 13.58981567 8.04877502 12.98431885 7.6789856 12.36047363 C6.68928456 10.68911712 5.70980409 9.0117207 4.73095703 7.33398438 C4.15974121 6.56376953 3.58852539 5.79355469 3 5 C2.01 5 1.02 5 0 5 Z " fill="#1A1A19" transform="translate(37,19)"/>
<path d="M0 0 C3.80968009 1.70778763 5.3669996 3.17709948 7.875 6.4375 C9.96029549 13.04093571 10.00996204 20.07111007 7.75 26.625 C5.19047334 30.09864332 3.08054414 31.63981862 -1 33 C-8.11098515 33.69071671 -13.30613631 33.50764209 -19 29 C-23.27963119 23.61594785 -22.73336118 16.5432114 -22 10 C-20.79754008 6.20513994 -19.00312056 3.73923344 -15.7578125 1.34765625 C-10.74296745 -1.10294083 -5.44699181 -0.60978902 0 0 Z M-11 9 C-12.69533076 14.08599229 -12.75632388 19.04948051 -10.8125 24.0625 C-9.13557532 26.20639825 -9.13557532 26.20639825 -6.5 26.625 C-3.87684392 26.20338313 -3.87684392 26.20338313 -2.1875 24.125 C-0.50665923 19.70173481 -0.15037432 15.66911412 -1 11 C-3.22990529 7.84777425 -3.22990529 7.84777425 -6 6 C-8.05362276 6 -9.51555198 7.74749698 -11 9 Z " fill="#1A1919" transform="translate(318,16)"/>
<path d="M0 0 C3.80968009 1.70778763 5.3669996 3.17709948 7.875 6.4375 C9.96029549 13.04093571 10.00996204 20.07111007 7.75 26.625 C5.19047334 30.09864332 3.08054414 31.63981862 -1 33 C-8.11098515 33.69071671 -13.30613631 33.50764209 -19 29 C-23.27963119 23.61594785 -22.73336118 16.5432114 -22 10 C-20.79754008 6.20513994 -19.00312056 3.73923344 -15.7578125 1.34765625 C-10.74296745 -1.10294083 -5.44699181 -0.60978902 0 0 Z M-11 9 C-12.69533076 14.08599229 -12.75632388 19.04948051 -10.8125 24.0625 C-9.13557532 26.20639825 -9.13557532 26.20639825 -6.5 26.625 C-3.87684392 26.20338313 -3.87684392 26.20338313 -2.1875 24.125 C-0.50665923 19.70173481 -0.15037432 15.66911412 -1 11 C-3.22990529 7.84777425 -3.22990529 7.84777425 -6 6 C-8.05362276 6 -9.51555198 7.74749698 -11 9 Z " fill="#1A1919" transform="translate(131,16)"/>
<path d="M0 0 C2.97 0 5.94 0 9 0 C9.33 0.66 9.66 1.32 10 2 C10.5671875 1.67902344 11.134375 1.35804687 11.71875 1.02734375 C14.14552869 -0.06553775 15.85257891 -0.36043466 18.5 -0.4375 C19.2528125 -0.47746094 20.005625 -0.51742188 20.78125 -0.55859375 C24.15407514 0.29055061 25.12057807 2.1448554 27 5 C27.45410156 8.04614258 27.45410156 8.04614258 27.390625 11.39453125 C27.37128906 13.19760742 27.37128906 13.19760742 27.3515625 15.03710938 C27.31804687 16.28298828 27.28453125 17.52886719 27.25 18.8125 C27.23195313 20.07771484 27.21390625 21.34292969 27.1953125 22.64648438 C27.14823916 25.76509335 27.08249094 28.88215973 27 32 C23.7 32 20.4 32 17 32 C16.505 20.615 16.505 20.615 16 9 C14.35 9.33 12.7 9.66 11 10 C10.67 17.26 10.34 24.52 10 32 C6.7 32 3.4 32 0 32 C0 21.44 0 10.88 0 0 Z " fill="#1A1919" transform="translate(331,16)"/>
<path d="M0 0 C2.97 0 5.94 0 9 0 C9.33 0.66 9.66 1.32 10 2 C10.5671875 1.67902344 11.134375 1.35804687 11.71875 1.02734375 C14.14552869 -0.06553775 15.85257891 -0.36043466 18.5 -0.4375 C19.2528125 -0.47746094 20.005625 -0.51742188 20.78125 -0.55859375 C24.15407514 0.29055061 25.12057807 2.1448554 27 5 C27.45410156 8.04614258 27.45410156 8.04614258 27.390625 11.39453125 C27.37128906 13.19760742 27.37128906 13.19760742 27.3515625 15.03710938 C27.31804687 16.28298828 27.28453125 17.52886719 27.25 18.8125 C27.23195312 20.07771484 27.21390625 21.34292969 27.1953125 22.64648438 C27.14823916 25.76509335 27.08249094 28.88215973 27 32 C23.7 32 20.4 32 17 32 C16.505 20.615 16.505 20.615 16 9 C14.35 9.33 12.7 9.66 11 10 C10.67 17.26 10.34 24.52 10 32 C6.7 32 3.4 32 0 32 C0 21.44 0 10.88 0 0 Z " fill="#1A1919" transform="translate(166,16)"/>
<path d="M0 0 C3.0595035 1.89146645 4.68460666 3.93521458 5.9609375 7.23046875 C6.21841673 10.91757128 6.04907634 14.52863747 5.9609375 18.23046875 C-0.3090625 18.23046875 -6.5790625 18.23046875 -13.0390625 18.23046875 C-11.0590625 21.20046875 -11.0590625 21.20046875 -9.0390625 24.23046875 C-4.56642378 24.81025525 -0.4468462 24.09052411 3.9609375 23.23046875 C4.2909375 25.21046875 4.6209375 27.19046875 4.9609375 29.23046875 C-0.58889266 32.93035552 -6.5086898 33.12696675 -13.0390625 32.23046875 C-17.08524558 30.19869441 -19.47980346 27.9779552 -22.0390625 24.23046875 C-23.8073861 18.59975414 -23.59638956 13.08822562 -21.9140625 7.48046875 C-16.99538983 -1.04523054 -9.49136529 -3.58199035 0 0 Z M-10.6640625 6.48046875 C-12.37365675 8.41096234 -12.37365675 8.41096234 -13.0390625 12.23046875 C-9.7390625 12.23046875 -6.4390625 12.23046875 -3.0390625 12.23046875 C-3.61358996 8.29971231 -3.61358996 8.29971231 -6.0390625 5.23046875 C-8.98444258 4.92561337 -8.98444258 4.92561337 -10.6640625 6.48046875 Z " fill="#1A1919" transform="translate(385.0390625,16.76953125)"/>
<path d="M0 0 C3.0595035 1.89146645 4.68460666 3.93521458 5.9609375 7.23046875 C6.21841673 10.91757128 6.04907634 14.52863747 5.9609375 18.23046875 C-0.3090625 18.23046875 -6.5790625 18.23046875 -13.0390625 18.23046875 C-11.0590625 21.20046875 -11.0590625 21.20046875 -9.0390625 24.23046875 C-4.56642378 24.81025525 -0.4468462 24.09052411 3.9609375 23.23046875 C4.2909375 25.21046875 4.6209375 27.19046875 4.9609375 29.23046875 C-0.58889266 32.93035552 -6.5086898 33.12696675 -13.0390625 32.23046875 C-17.08524558 30.19869441 -19.47980346 27.9779552 -22.0390625 24.23046875 C-23.8073861 18.59975414 -23.59638956 13.08822562 -21.9140625 7.48046875 C-16.99538983 -1.04523054 -9.49136529 -3.58199035 0 0 Z M-10.6640625 6.48046875 C-12.37365675 8.41096234 -12.37365675 8.41096234 -13.0390625 12.23046875 C-9.7390625 12.23046875 -6.4390625 12.23046875 -3.0390625 12.23046875 C-3.61358996 8.29971231 -3.61358996 8.29971231 -6.0390625 5.23046875 C-8.98444258 4.92561337 -8.98444258 4.92561337 -10.6640625 6.48046875 Z " fill="#1A1919" transform="translate(220.0390625,16.76953125)"/>
<path d="M0 0 C0.74958984 0.05220703 1.49917969 0.10441406 2.27148438 0.15820312 C4.11887082 0.28763784 5.96574371 0.42436518 7.8125 0.5625 C7.89986736 4.29151814 7.95301482 8.02027165 8 11.75 C8.02513672 12.80509766 8.05027344 13.86019531 8.07617188 14.94726562 C8.08583984 15.96884766 8.09550781 16.99042969 8.10546875 18.04296875 C8.1211792 18.98035889 8.13688965 19.91774902 8.15307617 20.88354492 C7.74537077 24.09053518 6.67570484 25.94607254 4.8125 28.5625 C1.47120124 31.0132764 -1.76626744 30.80023539 -5.8125 30.75 C-6.95976562 30.74355469 -8.10703125 30.73710938 -9.2890625 30.73046875 C-12.1875 30.5625 -12.1875 30.5625 -14.1875 29.5625 C-13.8575 27.9125 -13.5275 26.2625 -13.1875 24.5625 C-9.5575 24.5625 -5.9275 24.5625 -2.1875 24.5625 C-1.8575 23.9025 -1.5275 23.2425 -1.1875 22.5625 C-1.8475 22.8925 -2.5075 23.2225 -3.1875 23.5625 C-7.35049982 23.60199715 -11.07546604 23.60503184 -14.1875 20.6875 C-16.53707547 15.69465212 -16.9494688 11.14147133 -15.375 5.8125 C-11.8069581 -0.94800043 -6.99203799 -0.53127276 0 0 Z M-6.1875 4.5625 C-8.28241746 7.96674088 -8.68323145 10.59664842 -8.1875 14.5625 C-6.31248069 16.93969693 -6.31248069 16.93969693 -4.1875 18.5625 C-3.1975 18.2325 -2.2075 17.9025 -1.1875 17.5625 C0.3760348 14.43543041 0.21208487 10.98267557 -0.1875 7.5625 C-0.8475 6.5725 -1.5075 5.5825 -2.1875 4.5625 C-3.5075 4.5625 -4.8275 4.5625 -6.1875 4.5625 Z " fill="#2391AF" transform="translate(384.1875,60.4375)"/>
<path d="M0 0 C2.97 0 5.94 0 9 0 C10.65 3.3 12.3 6.6 14 10 C15.32 6.7 16.64 3.4 18 0 C19.65 0 21.3 0 23 0 C24.65 3.3 26.3 6.6 28 10 C29.65 6.7 31.3 3.4 33 0 C34.98 0 36.96 0 39 0 C36.54234965 7.91909556 33.33181427 15.41985296 30 23 C28.02 23 26.04 23 24 23 C22.68 20.03 21.36 17.06 20 14 C18.35 16.97 16.7 19.94 15 23 C13.02 23 11.04 23 9 23 C6.03 15.41 3.06 7.82 0 0 Z " fill="#2391AF" transform="translate(84,61)"/>
<path d="M0 0 C0.85464844 -0.01417969 1.70929688 -0.02835938 2.58984375 -0.04296875 C5.20159303 0.20046444 6.81750652 0.8696732 9.0625 2.1875 C8.7325 4.1675 8.4025 6.1475 8.0625 8.1875 C6.07682292 7.89453125 4.09114583 7.6015625 2.10546875 7.30859375 C-0.1400342 7.04845201 -0.1400342 7.04845201 -2.9375 8.1875 C-3.2675 8.8475 -3.5975 9.5075 -3.9375 10.1875 C-3.26203125 10.35765625 -2.5865625 10.5278125 -1.890625 10.703125 C1.89106694 11.73052108 5.30937322 12.73921025 8.6875 14.75 C10.94162743 18.74595317 10.92067851 22.73074103 10.0625 27.1875 C7.87227082 30.01174288 6.23232793 31.60258603 3.0625 33.1875 C1.10700744 33.31007461 -0.85320618 33.36302388 -2.8125 33.375 C-3.86179687 33.38917969 -4.91109375 33.40335938 -5.9921875 33.41796875 C-8.87297071 33.19254937 -10.49990208 32.67714317 -12.9375 31.1875 C-12.6075 29.2075 -12.2775 27.2275 -11.9375 25.1875 C-10.7 25.373125 -9.4625 25.55875 -8.1875 25.75 C-5.17470423 26.13461223 -2.83739173 26.2749594 0.0625 25.1875 C0.0625 24.1975 0.0625 23.2075 0.0625 22.1875 C-0.85982422 21.82398438 -0.85982422 21.82398438 -1.80078125 21.453125 C-10.39508355 17.88929949 -10.39508355 17.88929949 -11.9375 14.1875 C-12.46520344 9.43816901 -12.63954741 7.32530098 -10.125 3.25 C-6.91048711 0.21917356 -4.25171758 0.0319678 0 0 Z " fill="#1A1919" transform="translate(262.9375,15.8125)"/>
<path d="M0 0 C0 2.31 0 4.62 0 7 C-1.15628906 6.94779297 -1.15628906 6.94779297 -2.3359375 6.89453125 C-3.84027344 6.85392578 -3.84027344 6.85392578 -5.375 6.8125 C-6.37273437 6.77769531 -7.37046875 6.74289063 -8.3984375 6.70703125 C-9.68621094 6.85205078 -9.68621094 6.85205078 -11 7 C-13.20827308 10.31240961 -13.69719195 12.06349537 -14 16 C-13.14703322 19.78059045 -13.14703322 19.78059045 -12 23 C-7.66726186 23.92844389 -4.33273814 23.92844389 0 23 C0.33 25.31 0.66 27.62 1 30 C-5.35109931 32.88268703 -11.79286591 32.99129599 -18.4375 30.9375 C-21.81844134 28.3811785 -23.77766728 26.02408413 -25 22 C-25.71551899 16.20283592 -26.07724069 10.21135767 -23.375 4.875 C-18.14626633 -1.45451971 -7.65683252 -3.82841626 0 0 Z " fill="#1A1919" transform="translate(107,17)"/>
<path d="M0 0 C0 2.97 0 5.94 0 9 C2.31 9 4.62 9 7 9 C7 11.31 7 13.62 7 16 C4.69 16 2.38 16 0 16 C0.1409349 18.43787385 0.28754542 20.87517853 0.4375 23.3125 C0.47681641 24.00279297 0.51613281 24.69308594 0.55664062 25.40429688 C0.74927415 28.47161535 1.02322717 31.06968152 2 34 C3.65 34 5.3 34 7 34 C7.33 36.31 7.66 38.62 8 41 C-0.94147298 42.44105293 -0.94147298 42.44105293 -5 40.75 C-7.37688669 38.67022415 -8.89141419 37.04090587 -9.22705078 33.82348633 C-9.21657715 33.00130615 -9.20610352 32.17912598 -9.1953125 31.33203125 C-9.18886719 30.43935547 -9.18242187 29.54667969 -9.17578125 28.62695312 C-9.15902344 27.69818359 -9.14226562 26.76941406 -9.125 25.8125 C-9.11597656 24.87212891 -9.10695313 23.93175781 -9.09765625 22.96289062 C-9.07409056 20.64167032 -9.04119116 18.32096356 -9 16 C-10.32 16 -11.64 16 -13 16 C-13 13.69 -13 11.38 -13 9 C-11.68 9 -10.36 9 -9 9 C-8.979375 8.2575 -8.95875 7.515 -8.9375 6.75 C-7.86142869 3.59352416 -7.28750506 3.277917 -4.5 1.6875 C-1 0 -1 0 0 0 Z " fill="#1A1919" transform="translate(288,7)"/>
<path d="M0 0 C2.64365079 1.87613927 2.95241281 2.85723843 4 6 C4.50686864 11.2930381 4.56036865 15.69994473 2.4375 20.625 C-0.71387716 23.69557262 -2.64475016 24 -7 24 C-9.4375 23.0625 -9.4375 23.0625 -11 22 C-11.33 24.64 -11.66 27.28 -12 30 C-14.31 30 -16.62 30 -19 30 C-19 20.1 -19 10.2 -19 0 C-16.03 0 -13.06 0 -10 0 C-6.75673529 -1.62163236 -3.41604532 -0.79801059 0 0 Z M-10 5 C-12.83022097 8.99560608 -11.76210446 12.42737323 -11 17 C-8.60280568 17.67958603 -8.60280568 17.67958603 -6 18 C-3.81060091 16.21892751 -3.81060091 16.21892751 -3.734375 13.90625 C-3.73953125 13.1121875 -3.7446875 12.318125 -3.75 11.5 C-3.74484375 10.7059375 -3.7396875 9.911875 -3.734375 9.09375 C-3.81060091 6.78107249 -3.81060091 6.78107249 -6 5 C-7.32 5 -8.64 5 -10 5 Z " fill="#2391AF" transform="translate(233,61)"/>
<path d="M0 0 C0.79664063 0.01160156 1.59328125 0.02320313 2.4140625 0.03515625 C3.60128906 0.04869141 3.60128906 0.04869141 4.8125 0.0625 C5.54726562 0.07410156 6.28203125 0.08570313 7.0390625 0.09765625 C8.0290625 0.09765625 9.0190625 0.09765625 10.0390625 0.09765625 C12.0390625 0.09765625 14.0390625 0.09765625 16.0390625 0.09765625 C16.0390625 3.06765625 16.0390625 6.03765625 16.0390625 9.09765625 C15.0903125 9.53078125 14.1415625 9.96390625 13.1640625 10.41015625 C9.83864313 11.89067826 9.83864313 11.89067826 8.0390625 15.09765625 C7.6764508 17.02509994 7.6764508 17.02509994 7.625 19.109375 C7.56699219 20.24536133 7.56699219 20.24536133 7.5078125 21.40429688 C7.46140625 22.58282227 7.46140625 22.58282227 7.4140625 23.78515625 C7.35605469 24.98108398 7.35605469 24.98108398 7.296875 26.20117188 C7.20273756 28.166291 7.11981618 30.13194165 7.0390625 32.09765625 C3.7390625 32.09765625 0.4390625 32.09765625 -2.9609375 32.09765625 C-2.98559254 27.70109452 -3.00377592 23.30456905 -3.01586914 18.90795898 C-3.02090871 17.41120707 -3.02774037 15.91446009 -3.03637695 14.41772461 C-3.04845909 12.27065818 -3.05416941 10.12365663 -3.05859375 7.9765625 C-3.06383057 6.68306885 -3.06906738 5.3895752 -3.07446289 4.05688477 C-2.92441507 0.1456382 -2.92441507 0.1456382 0 0 Z " fill="#1A1919" transform="translate(233.9609375,15.90234375)"/>
<path d="M0 0 C0.79664063 0.01160156 1.59328125 0.02320313 2.4140625 0.03515625 C3.60128906 0.04869141 3.60128906 0.04869141 4.8125 0.0625 C5.54726562 0.07410156 6.28203125 0.08570313 7.0390625 0.09765625 C8.0290625 0.09765625 9.0190625 0.09765625 10.0390625 0.09765625 C12.0390625 0.09765625 14.0390625 0.09765625 16.0390625 0.09765625 C16.0390625 3.06765625 16.0390625 6.03765625 16.0390625 9.09765625 C15.0903125 9.53078125 14.1415625 9.96390625 13.1640625 10.41015625 C9.83864313 11.89067826 9.83864313 11.89067826 8.0390625 15.09765625 C7.6764508 17.02509994 7.6764508 17.02509994 7.625 19.109375 C7.56699219 20.24536133 7.56699219 20.24536133 7.5078125 21.40429688 C7.46140625 22.58282227 7.46140625 22.58282227 7.4140625 23.78515625 C7.35605469 24.98108398 7.35605469 24.98108398 7.296875 26.20117188 C7.20273756 28.166291 7.11981618 30.13194165 7.0390625 32.09765625 C3.7390625 32.09765625 0.4390625 32.09765625 -2.9609375 32.09765625 C-2.98559254 27.70109452 -3.00377592 23.30456905 -3.01586914 18.90795898 C-3.02090871 17.41120707 -3.02774037 15.91446009 -3.03637695 14.41772461 C-3.04845909 12.27065818 -3.05416941 10.12365663 -3.05859375 7.9765625 C-3.06383057 6.68306885 -3.06906738 5.3895752 -3.07446289 4.05688477 C-2.92441507 0.1456382 -2.92441507 0.1456382 0 0 Z " fill="#1A1919" transform="translate(146.9609375,15.90234375)"/>
<path d="M0 0 C3.20384041 1.29516953 4.5905657 2.51997358 6.8125 5.125 C8.48383865 9.17139883 8.67624905 12.68416334 8 17 C6.22160624 20.7619868 4.97928467 22.47619657 1.3125 24.4375 C-4.28056798 25.38726626 -9.00512891 25.18843384 -13.9375 22.25 C-16.75219975 19.17941845 -17.9358928 17.0702855 -18.06640625 12.85546875 C-17.82781714 8.49579507 -17.38322079 6.47165636 -14.5625 3 C-9.8613166 -0.66921631 -5.82038591 -0.50492307 0 0 Z M-9 7 C-10.26817809 11.64998633 -9.79583282 14.56323657 -8 19 C-6.35 19.33 -4.7 19.66 -3 20 C-0.41924598 17.41924598 0.24052758 15.49032019 0.3125 11.9375 C0.31762368 7.94870844 0.31762368 7.94870844 -2 5 C-5.45795783 4.56775527 -6.47975609 4.47975609 -9 7 Z " fill="#2391AF" transform="translate(274,60)"/>
<path d="M0 0 C3.40625437 2.24314312 4.39866914 3.97756629 5.3125 7.9375 C5.66703425 13.25551381 5.04689145 16.97820075 1.5 21.0625 C-2.9830121 23.54246414 -7.41245942 24.34486459 -12.46875 23.24609375 C-15.32371494 22.18757921 -17.29882505 20.83512172 -19.375 18.625 C-20.95340985 14.261161 -21.23464708 10.26561075 -20.4375 5.6875 C-16.22240725 -2.35509077 -7.8066768 -2.98073114 0 0 Z M-10.4375 3.6875 C-12.89166273 7.3687441 -13.03134154 10.41011963 -12.4375 14.6875 C-11.09919042 17.1470774 -11.09919042 17.1470774 -9.4375 18.6875 C-6.96483235 18.34305119 -6.96483235 18.34305119 -4.4375 17.6875 C-3.19862452 15.20974905 -3.27008331 13.45096293 -3.25 10.6875 C-3.23582031 9.800625 -3.22164063 8.91375 -3.20703125 8 C-3.21036874 5.49230016 -3.21036874 5.49230016 -5.4375 3.6875 C-7.9375 3.27083333 -7.9375 3.27083333 -10.4375 3.6875 Z " fill="#2391AF" transform="translate(304.4375,61.3125)"/>
<path d="M0 0 C2.93754357 1.67859633 4.56035652 2.64354539 5.61499023 5.89746094 C6.24293672 9.3266779 6.10238351 12.77706634 6.0625 16.25 C6.05798828 16.99507812 6.05347656 17.74015625 6.04882812 18.5078125 C6.03709246 20.3385764 6.0191585 22.16929873 6 24 C2.91698584 24.11644156 -0.16546123 24.18732432 -3.25 24.25 C-4.55904297 24.30027344 -4.55904297 24.30027344 -5.89453125 24.3515625 C-12.34387829 24.45002581 -12.34387829 24.45002581 -15.57421875 22.234375 C-17.48847323 19.23450223 -17.64529208 17.3867674 -17.4375 13.90625 C-17 12 -17 12 -15.0625 9.5 C-10.94895266 7.4852013 -7.49692378 7.6473001 -3 8 C-3 7.34 -3 6.68 -3 6 C-6.3 6 -9.6 6 -13 6 C-13.33 4.68 -13.66 3.36 -14 2 C-9.44963816 -0.6272297 -5.13822613 -0.6817711 0 0 Z M-9 13 C-9.16666667 15.5 -9.16666667 15.5 -9 18 C-7.93354885 19.29633621 -7.93354885 19.29633621 -5.4375 19.0625 C-4.633125 19.041875 -3.82875 19.02125 -3 19 C-1.99782936 15.41672247 -1.99782936 15.41672247 -3 12 C-6.28930404 11.63314303 -6.28930404 11.63314303 -9 13 Z " fill="#2391AF" transform="translate(141,60)"/>
<path d="M0 0 C2.26290404 1.92003979 3.19729929 2.91843403 4.0625 5.75 C4.0625 8.06 4.0625 10.37 4.0625 12.75 C-1.2175 12.75 -6.4975 12.75 -11.9375 12.75 C-11.2775 14.07 -10.6175 15.39 -9.9375 16.75 C-5.68763074 18.00564319 -2.23067818 17.66996675 2.0625 16.75 C2.3925 18.4 2.7225 20.05 3.0625 21.75 C-2.72759268 23.88981686 -7.90315815 24.35303159 -13.9375 22.75 C-17.24210168 20.18724768 -18.62062801 18.70061598 -19.9375 14.75 C-20.33191267 9.52403212 -19.84299127 6.15833158 -16.9375 1.75 C-12.10919296 -2.51027092 -5.71720361 -2.4328526 0 0 Z M-9.9375 3.75 C-10.5975 5.4 -11.2575 7.05 -11.9375 8.75 C-8.9675 8.75 -5.9975 8.75 -2.9375 8.75 C-3.5975 7.1 -4.2575 5.45 -4.9375 3.75 C-6.5875 3.75 -8.2375 3.75 -9.9375 3.75 Z " fill="#2391AF" transform="translate(186.9375,61.25)"/>
<path d="M0 0 C2.2109375 1.37890625 2.2109375 1.37890625 4 4 C4.49158353 7.42930799 4.3758188 10.79482228 4.25 14.25 C4.23195313 15.18585938 4.21390625 16.12171875 4.1953125 17.0859375 C4.14825673 19.39167015 4.08253713 21.69530945 4 24 C1.36 24 -1.28 24 -4 24 C-4.33 18.39 -4.66 12.78 -5 7 C-6.65 7.33 -8.3 7.66 -10 8 C-10.33 13.28 -10.66 18.56 -11 24 C-13.31 24 -15.62 24 -18 24 C-18 16.41 -18 8.82 -18 1 C-15.03 1 -12.06 1 -9 1 C-5.90826248 -0.54586876 -3.40570448 -0.29359521 0 0 Z " fill="#2391AF" transform="translate(361,60)"/>
<path d="M0 0 C0.680625 0.00644531 1.36125 0.01289062 2.0625 0.01953125 C4 0.1875 4 0.1875 7 1.1875 C6.34 2.8375 5.68 4.4875 5 6.1875 C3.35 5.8575 1.7 5.5275 0 5.1875 C0 5.8475 0 6.5075 0 7.1875 C1.32 7.5175 2.64 7.8475 4 8.1875 C3.67 9.8375 3.34 11.4875 3 13.1875 C1.68 13.1875 0.36 13.1875 -1 13.1875 C-1 19.1275 -1 25.0675 -1 31.1875 C-3.31 31.1875 -5.62 31.1875 -8 31.1875 C-8 25.2475 -8 19.3075 -8 13.1875 C-9.32 12.8575 -10.64 12.5275 -12 12.1875 C-12 10.8675 -12 9.5475 -12 8.1875 C-10.68 8.1875 -9.36 8.1875 -8 8.1875 C-7.8453125 6.764375 -7.8453125 6.764375 -7.6875 5.3125 C-6.67068731 0.69062414 -4.38429845 -0.09133955 0 0 Z " fill="#2391AF" transform="translate(322,52.8125)"/>
<path d="M0 0 C0 2.31 0 4.62 0 7 C1.65 7 3.3 7 5 7 C4.67 8.65 4.34 10.3 4 12 C2.68 12 1.36 12 0 12 C0.33 15.96 0.66 19.92 1 24 C2.65 24.33 4.3 24.66 6 25 C6 26.65 6 28.3 6 30 C4.39667209 30.08121924 2.79215974 30.13929134 1.1875 30.1875 C-0.15248047 30.23970703 -0.15248047 30.23970703 -1.51953125 30.29296875 C-4 30 -4 30 -5.76171875 28.61328125 C-8.37726462 25.20564578 -8.10402079 22.61012027 -8.0625 18.375 C-8.05347656 17.18648437 -8.04445312 15.99796875 -8.03515625 14.7734375 C-8.02355469 13.85820313 -8.01195312 12.94296875 -8 12 C-8.99 11.67 -9.98 11.34 -11 11 C-11 9.68 -11 8.36 -11 7 C-10.01 7 -9.02 7 -8 7 C-7.9071875 6.1028125 -7.9071875 6.1028125 -7.8125 5.1875 C-6.54345853 1.77084988 -3.64481301 0 0 0 Z " fill="#2391AF" transform="translate(160,54)"/>
<path d="M0 0 C0 2.31 0 4.62 0 7 C-0.804375 7.28875 -1.60875 7.5775 -2.4375 7.875 C-5.1326468 8.73262568 -5.1326468 8.73262568 -6 11 C-6.22950319 13.204364 -6.41075933 15.41392173 -6.5625 17.625 C-6.64628906 18.81351563 -6.73007813 20.00203125 -6.81640625 21.2265625 C-6.87699219 22.14179687 -6.93757812 23.05703125 -7 24 C-9.64 24 -12.28 24 -15 24 C-15 16.41 -15 8.82 -15 1 C-12.03 1 -9.06 1 -6 1 C-4 0 -4 0 0 0 Z " fill="#2391AF" transform="translate(210,60)"/>
<path d="M0 0 C1.2065625 0.0309375 1.2065625 0.0309375 2.4375 0.0625 C2.4375 2.3725 2.4375 4.6825 2.4375 7.0625 C1.46554688 7.40925781 0.49359375 7.75601563 -0.5078125 8.11328125 C-3.90646873 9.78457527 -3.90646873 9.78457527 -4.3671875 13.41796875 C-4.39039063 14.68253906 -4.41359375 15.94710937 -4.4375 17.25 C-4.49550781 19.15845703 -4.49550781 19.15845703 -4.5546875 21.10546875 C-4.55726563 22.08128906 -4.55984375 23.05710937 -4.5625 24.0625 C-7.2025 24.0625 -9.8425 24.0625 -12.5625 24.0625 C-12.5625 16.4725 -12.5625 8.8825 -12.5625 1.0625 C-9.5625 1.0625 -6.5625 1.0625 -3.5625 1.0625 C-2.5625 0.0625 -2.5625 0.0625 0 0 Z " fill="#2391AF" transform="translate(252.5625,59.9375)"/>
<path d="M0 0 C4.43394839 4.43394839 7.18827663 12.81189671 7.625 19.0625 C7 22 7 22 4.875 24.5 C2 26 2 26 -1.125 26 C-4 25 -4 25 -5.9375 23.4375 C-8.0139565 18.67386449 -6.55000265 14.49950047 -4.84375 9.84765625 C-1.38028169 1.38028169 -1.38028169 1.38028169 0 0 Z " fill="#B6D6DA" transform="translate(38,45)"/>
<path d="M0 0 C2.31 0 4.62 0 7 0 C7 7.59 7 15.18 7 23 C4.69 23 2.38 23 0 23 C0 15.41 0 7.82 0 0 Z " fill="#2391AF" transform="translate(331,61)"/>
<path d="M0 0 C1.31677734 0.00580078 1.31677734 0.00580078 2.66015625 0.01171875 C4.9375 0.3125 4.9375 0.3125 6.9375 2.3125 C6.79691192 5.61631982 6.5151943 7.61926684 4.375 10.1875 C0.66388748 11.90032116 -1.97990764 11.70131832 -6.0625 11.3125 C-8.125 10.125 -8.125 10.125 -9.0625 8.3125 C-8.92379257 5.53835146 -8.50517025 3.89760674 -6.82421875 1.67578125 C-4.46547599 -0.14949862 -2.95206874 -0.05651973 0 0 Z M-4.9375 3.8125 C-5.30875 4.3075 -5.68 4.8025 -6.0625 5.3125 C-5.4025 6.6325 -4.7425 7.9525 -4.0625 9.3125 C-1.11522465 9.21080839 -1.11522465 9.21080839 1.9375 8.3125 C3.39041273 5.84994315 3.39041273 5.84994315 3.9375 3.3125 C2.83221558 1.99281822 2.83221558 1.99281822 0.0625 2.0625 C-3.05341888 2.01801216 -3.05341888 2.01801216 -4.9375 3.8125 Z " fill="#343434" transform="translate(127.0625,102.6875)"/>
<path d="M0 0 C2.88575819 0.39803561 3.82189513 0.79009069 5.75 3.0625 C6.36875 4.0215625 6.36875 4.0215625 7 5 C7.66 3.35 8.32 1.7 9 0 C9.99 0 10.98 0 12 0 C11.53199289 4.05606165 11.12046792 7.46588679 9 11 C8.01 11 7.02 11 6 11 C3.8125 8 3.8125 8 2 5 C1.34 6.98 0.68 8.96 0 11 C-0.99 11 -1.98 11 -3 11 C-2.53199289 6.94393835 -2.12046792 3.53411321 0 0 Z " fill="#343434" transform="translate(139,103)"/>
<path d="M0 0 C0.89589844 -0.01417969 1.79179688 -0.02835937 2.71484375 -0.04296875 C5.0625 0.1875 5.0625 0.1875 7.0625 2.1875 C7.1875 5.3125 7.1875 5.3125 7.0625 8.1875 C1.9156808 11.35477335 -2.095756 11.53800464 -7.9375 11.1875 C-7.62967504 9.54078588 -7.31610766 7.89514424 -7 6.25 C-6.82597656 5.33347656 -6.65195313 4.41695313 -6.47265625 3.47265625 C-5.52190363 -0.58712686 -3.86615639 0.02773426 0 0 Z M-2.9375 2.1875 C-3.2675 4.4975 -3.5975 6.8075 -3.9375 9.1875 C0.54133696 8.74046014 0.54133696 8.74046014 4.0625 6.1875 C3.7439823 4.07929203 3.7439823 4.07929203 3.0625 2.1875 C1.0825 2.1875 -0.8975 2.1875 -2.9375 2.1875 Z " fill="#343433" transform="translate(73.9375,102.8125)"/>
<path d="M0 0 C2.91387197 0.2913872 3.82565583 0.79452294 5.75 3.0625 C6.36875 4.0215625 6.36875 4.0215625 7 5 C7.66 3.35 8.32 1.7 9 0 C9.99 0 10.98 0 12 0 C11.53199289 4.05606165 11.12046792 7.46588679 9 11 C8.01 11 7.02 11 6 11 C4.95107762 9.36368108 3.95093297 7.69514137 3 6 C2.34 5.67 1.68 5.34 1 5 C0.67 6.98 0.34 8.96 0 11 C-0.99 11 -1.98 11 -3 11 C-2.69217504 9.35328588 -2.37860766 7.70764424 -2.0625 6.0625 C-1.88847656 5.14597656 -1.71445312 4.22945313 -1.53515625 3.28515625 C-1 1 -1 1 0 0 Z " fill="#343433" transform="translate(52,103)"/>
<path d="M0 0 C1.17755859 -0.00773437 1.17755859 -0.00773437 2.37890625 -0.015625 C4.4375 0.25 4.4375 0.25 6.4375 2.25 C6.3125 5.75 6.3125 5.75 5.4375 9.25 C3.0375189 11.3730602 1.14089793 11.28177879 -2.0625 11.625 C-5.5625 11.25 -5.5625 11.25 -8 9.25 C-8.515625 8.59 -9.03125 7.93 -9.5625 7.25 C-7.73168015 1.89837274 -5.7445369 -0.03785527 0 0 Z M-5.5625 4.25 C-5.24208603 6.85280568 -5.24208603 6.85280568 -4.5625 9.25 C-1.71923536 9.48053497 -0.10104651 9.60903101 2.3125 8 C3.68568863 6.28345767 3.68568863 6.28345767 3.125 4.0625 C2.898125 3.464375 2.67125 2.86625 2.4375 2.25 C-2.05554582 1.82496554 -2.05554582 1.82496554 -5.5625 4.25 Z " fill="#343434" transform="translate(23.5625,102.75)"/>
<path d="M0 0 C2.97 0 5.94 0 9 0 C9.33 1.65 9.66 3.3 10 5 C9.34 5 8.68 5 8 5 C8.33 6.98 8.66 8.96 9 11 C7.68 10.67 6.36 10.34 5 10 C5 9.01 5 8.02 5 7 C4.01 7.33 3.02 7.66 2 8 C1.67 8.99 1.34 9.98 1 11 C0.01 11 -0.98 11 -2 11 C-1.49547781 7.25212088 -0.91840767 3.67363066 0 0 Z M3 2 C2.67 2.99 2.34 3.98 2 5 C3.65 4.67 5.3 4.34 7 4 C7 3.34 7 2.68 7 2 C5.68 2 4.36 2 3 2 Z " fill="#343434" transform="translate(228,103)"/>
<path d="M0 0 C2.64 0 5.28 0 8 0 C8.33 1.65 8.66 3.3 9 5 C8.34 5 7.68 5 7 5 C7.33 6.98 7.66 8.96 8 11 C7.01 11 6.02 11 5 11 C4.67 9.68 4.34 8.36 4 7 C3.01 7.33 2.02 7.66 1 8 C0.67 8.99 0.34 9.98 0 11 C-0.99 11 -1.98 11 -3 11 C-2.53199289 6.94393835 -2.12046792 3.53411321 0 0 Z M2 2 C2.33 2.99 2.66 3.98 3 5 C3.99 4.67 4.98 4.34 6 4 C6 3.34 6 2.68 6 2 C4.68 2 3.36 2 2 2 Z " fill="#343434" transform="translate(166,103)"/>
<path d="M0 0 C0.66 3.63 1.32 7.26 2 11 C0.68 10.67 -0.64 10.34 -2 10 C-2 9.34 -2 8.68 -2 8 C-2.9075 8.309375 -3.815 8.61875 -4.75 8.9375 C-7.16563338 9.7272263 -9.52780285 10.42949297 -12 11 C-10.65864082 8.11288406 -9.15056005 5.70586037 -7.125 3.25 C-6.63257812 2.63640625 -6.14015625 2.0228125 -5.6328125 1.390625 C-4 0 -4 0 0 0 Z M-4 4 C-4.33 4.66 -4.66 5.32 -5 6 C-4.01 5.67 -3.02 5.34 -2 5 C-2.66 4.67 -3.32 4.34 -4 4 Z " fill="#343434" transform="translate(94,103)"/>
<path d="M0 0 C0.66 3.63 1.32 7.26 2 11 C0.68 10.67 -0.64 10.34 -2 10 C-2 9.34 -2 8.68 -2 8 C-2.9075 8.309375 -3.815 8.61875 -4.75 8.9375 C-7.16563338 9.7272263 -9.52780285 10.42949297 -12 11 C-10.65864082 8.11288406 -9.15056005 5.70586037 -7.125 3.25 C-6.63257813 2.63640625 -6.14015625 2.0228125 -5.6328125 1.390625 C-4 0 -4 0 0 0 Z M-4 4 C-4.33 4.66 -4.66 5.32 -5 6 C-4.01 5.67 -3.02 5.34 -2 5 C-2.66 4.67 -3.32 4.34 -4 4 Z " fill="#343434" transform="translate(325,103)"/>
<path d="M0 0 C1.32 0 2.64 0 4 0 C5.42258812 3.82320557 6.24042276 6.91281305 6 11 C5.01 11 4.02 11 3 11 C3 10.01 3 9.02 3 8 C0.02934491 8.34227572 0.02934491 8.34227572 -3 9 C-3.33 9.66 -3.66 10.32 -4 11 C-5.32 10.67 -6.64 10.34 -8 10 C-6.76539562 8.32189696 -5.51175741 6.65778346 -4.25 5 C-3.55390625 4.071875 -2.8578125 3.14375 -2.140625 2.1875 C-1.43421875 1.465625 -0.7278125 0.74375 0 0 Z M1 3 C0.67 3.99 0.34 4.98 0 6 C0.66 6 1.32 6 2 6 C1.67 5.01 1.34 4.02 1 3 Z " fill="#343434" transform="translate(209,103)"/>
<path d="M0 0 C0.99 0 1.98 0 3 0 C2.67 2.64 2.34 5.28 2 8 C3.32 8 4.64 8 6 8 C6.99 5.36 7.98 2.72 9 0 C9.99 0 10.98 0 12 0 C11.71574109 3.69536586 11.4523486 6.3214771 9.375 9.4375 C6.10789095 11.58691385 3.82959591 11.42551066 0 11 C-0.66 10.34 -1.32 9.68 -2 9 C-1.45652174 2.91304348 -1.45652174 2.91304348 0 0 Z " fill="#343434" transform="translate(35,103)"/>
<path d="M0 0 C3.3 0 6.6 0 10 0 C9.67 0.66 9.34 1.32 9 2 C7.02 2 5.04 2 3 2 C3 2.66 3 3.32 3 4 C4.65 4 6.3 4 8 4 C8 4.66 8 5.32 8 6 C7.030625 6.12375 6.06125 6.2475 5.0625 6.375 C3.5465625 6.684375 3.5465625 6.684375 2 7 C1.67 7.66 1.34 8.32 1 9 C2.98 9 4.96 9 7 9 C7 9.66 7 10.32 7 11 C3.7 11 0.4 11 -3 11 C-2.01 7.37 -1.02 3.74 0 0 Z " fill="#343434" transform="translate(281,103)"/>
<path d="M0 0 C2.97 0 5.94 0 9 0 C9 0.66 9 1.32 9 2 C7.02 2.33 5.04 2.66 3 3 C4.65 3.33 6.3 3.66 8 4 C8 4.66 8 5.32 8 6 C5.69 6 3.38 6 1 6 C1 6.99 1 7.98 1 9 C2.98 9 4.96 9 7 9 C7 9.66 7 10.32 7 11 C3.7 11 0.4 11 -3 11 C-1.125 2.25 -1.125 2.25 0 0 Z " fill="#343434" transform="translate(180,103)"/>
<path d="M0 0 C0.66 0 1.32 0 2 0 C3.99817211 4.12122998 4.58066416 7.43763877 4 12 C1.875 14.5 1.875 14.5 -1 16 C-4.1875 15.9375 -4.1875 15.9375 -7 15 C-7.66 14.01 -8.32 13.02 -9 12 C-7.88625 11.896875 -6.7725 11.79375 -5.625 11.6875 C-4.42875 11.460625 -3.2325 11.23375 -2 11 C0.05925681 7.91111478 0.2390374 7.29064073 0.125 3.8125 C0.063125 1.9253125 0.063125 1.9253125 0 0 Z " fill="#A3CACD" transform="translate(41,55)"/>
<path d="M0 0 C2.97 0 5.94 0 9 0 C9.33 1.65 9.66 3.3 10 5 C6.86501708 6.85776765 4.62528568 7.20140476 1 7 C0.67 8.32 0.34 9.64 0 11 C-0.99 11 -1.98 11 -3 11 C-2.01 7.37 -1.02 3.74 0 0 Z M3 2 C2.67 2.99 2.34 3.98 2 5 C3.65 4.67 5.3 4.34 7 4 C7 3.34 7 2.68 7 2 C5.68 2 4.36 2 3 2 Z " fill="#343434" transform="translate(267,103)"/>
<path d="M0 0 C2.97 0 5.94 0 9 0 C9.33 1.65 9.66 3.3 10 5 C6.86501708 6.85776765 4.62528568 7.20140476 1 7 C0.67 8.32 0.34 9.64 0 11 C-0.99 11 -1.98 11 -3 11 C-2.01 7.37 -1.02 3.74 0 0 Z M3 2 C2.67 2.99 2.34 3.98 2 5 C3.65 4.67 5.3 4.34 7 4 C7 3.34 7 2.68 7 2 C5.68 2 4.36 2 3 2 Z " fill="#343434" transform="translate(193,103)"/>
<path d="M0 0 C-0.33 0.66 -0.66 1.32 -1 2 C-3.5625 2.625 -3.5625 2.625 -6 3 C-4.35 3.99 -2.7 4.98 -1 6 C-1.375 7.9375 -1.375 7.9375 -2 10 C-5.21451269 11.60725635 -8.43612536 11.05748185 -12 11 C-11.67 10.01 -11.34 9.02 -11 8 C-8.03 8.495 -8.03 8.495 -5 9 C-6.63412443 7.29159719 -7.86906094 6.06546953 -10 5 C-10 3.68 -10 2.36 -10 1 C-6.78548731 -0.60725635 -3.56387464 -0.05748185 0 0 Z " fill="#343434" transform="translate(361,103)"/>
<path d="M0 0 C-0.33 0.66 -0.66 1.32 -1 2 C-3.5625 2.625 -3.5625 2.625 -6 3 C-4.35 3.99 -2.7 4.98 -1 6 C-1.375 7.9375 -1.375 7.9375 -2 10 C-5.21451269 11.60725635 -8.43612536 11.05748185 -12 11 C-12 10.01 -12 9.02 -12 8 C-9.69 8.33 -7.38 8.66 -5 9 C-6.63412443 7.29159719 -7.86906094 6.06546953 -10 5 C-10 3.68 -10 2.36 -10 1 C-6.78548731 -0.60725635 -3.56387464 -0.05748185 0 0 Z " fill="#343433" transform="translate(263,103)"/>
<path d="M0 0 C2.64 0 5.28 0 8 0 C8 0.66 8 1.32 8 2 C6.02 2 4.04 2 2 2 C2 2.66 2 3.32 2 4 C3.32 4.33 4.64 4.66 6 5 C6.625 6.875 6.625 6.875 7 9 C5 11 5 11 3.0546875 11.1953125 C1.03645833 11.13020833 -0.98177083 11.06510417 -3 11 C-3 10.01 -3 9.02 -3 8 C-1.02 8 0.96 8 3 8 C1.35 6.68 -0.3 5.36 -2 4 C-1.34 2.68 -0.68 1.36 0 0 Z " fill="#343433" transform="translate(379,103)"/>
<path d="M0 0 C0.79921875 0.01804687 1.5984375 0.03609375 2.421875 0.0546875 C3.02515625 0.07789062 3.6284375 0.10109375 4.25 0.125 C4.25 0.785 4.25 1.445 4.25 2.125 C0.95 2.455 -2.35 2.785 -5.75 3.125 C-5.42 4.775 -5.09 6.425 -4.75 8.125 C-2.44 8.455 -0.13 8.785 2.25 9.125 C2.25 9.785 2.25 10.445 2.25 11.125 C0.8129191 11.17922947 -0.62475462 11.21789723 -2.0625 11.25 C-2.86300781 11.27320312 -3.66351563 11.29640625 -4.48828125 11.3203125 C-6.75 11.125 -6.75 11.125 -9.75 9.125 C-9.5 5.75 -9.5 5.75 -8.75 2.125 C-5.85451174 0.10849925 -3.46754203 -0.10198653 0 0 Z " fill="#343433" transform="translate(301.75,102.875)"/>
<path d="M0 0 C2.97 0 5.94 0 9 0 C9 0.66 9 1.32 9 2 C7.02 2.33 5.04 2.66 3 3 C4.65 3.33 6.3 3.66 8 4 C7.67 4.66 7.34 5.32 7 6 C5.02 6 3.04 6 1 6 C0.67 7.65 0.34 9.3 0 11 C-0.99 11 -1.98 11 -3 11 C-2.01 7.37 -1.02 3.74 0 0 Z " fill="#343434" transform="translate(4,103)"/>
<path d="M0 0 C4.29 0 8.58 0 13 0 C13 0.66 13 1.32 13 2 C12.236875 2 11.47375 2 10.6875 2 C7.8993117 2.70180149 7.8993117 2.70180149 7 4.84765625 C6.25331349 6.88309495 5.58484471 8.91262742 5 11 C4.01 11 3.02 11 2 11 C2.66 8.03 3.32 5.06 4 2 C2.68 2 1.36 2 0 2 C0 1.34 0 0.68 0 0 Z " fill="#343434" transform="translate(98,103)"/>
<path d="M0 0 C4.29 0 8.58 0 13 0 C13 0.66 13 1.32 13 2 C12.236875 2 11.47375 2 10.6875 2 C7.8993117 2.70180149 7.8993117 2.70180149 7 4.84765625 C6.25331349 6.88309495 5.58484471 8.91262742 5 11 C4.01 11 3.02 11 2 11 C2.66 8.03 3.32 5.06 4 2 C2.68 2 1.36 2 0 2 C0 1.34 0 0.68 0 0 Z " fill="#343434" transform="translate(363,103)"/>
<path d="M0 0 C1.32 0.33 2.64 0.66 4 1 C3.01 3.64 2.02 6.28 1 9 C2.98 9 4.96 9 7 9 C7 9.66 7 10.32 7 11 C4.03 11 1.06 11 -2 11 C-1 3.57142857 -1 3.57142857 0 0 Z " fill="#343434" transform="translate(332,103)"/>
<path d="M0 0 C2.31 0 4.62 0 7 0 C7 1.98 7 3.96 7 6 C4.69 6 2.38 6 0 6 C0 4.02 0 2.04 0 0 Z " fill="#2391AF" transform="translate(331,53)"/>
<path d="M0 0 C0.99 0 1.98 0 3 0 C2.69078116 1.45903258 2.37751201 2.91720722 2.0625 4.375 C1.88847656 5.18710938 1.71445312 5.99921875 1.53515625 6.8359375 C1 9 1 9 0 11 C-0.99 11 -1.98 11 -3 11 C-2.69078116 9.54096742 -2.37751201 8.08279278 -2.0625 6.625 C-1.88847656 5.81289062 -1.71445312 5.00078125 -1.53515625 4.1640625 C-1 2 -1 2 0 0 Z " fill="#343434" transform="translate(345,103)"/>
<path d="M0 0 C0.99 0.33 1.98 0.66 3 1 C2.01 4.3 1.02 7.6 0 11 C-0.99 11 -1.98 11 -3 11 C-2.53199289 6.94393835 -2.12046792 3.53411321 0 0 Z " fill="#343434" transform="translate(310,103)"/>
<path d="M0 0 C0.99 0 1.98 0 3 0 C2.34 3.3 1.68 6.6 1 10 C-0.32 10.33 -1.64 10.66 -3 11 C-2.01 7.37 -1.02 3.74 0 0 Z " fill="#343434" transform="translate(221,103)"/>
<path d="M0 0 C0.99 0 1.98 0 3 0 C2.53199289 4.05606165 2.12046792 7.46588679 0 11 C-0.99 10.67 -1.98 10.34 -3 10 C-2.01 6.7 -1.02 3.4 0 0 Z " fill="#343434" transform="translate(113,103)"/>
<path d="M0 0 C2.46278801 2.46278801 2.99771255 4.70676982 4 8 C1.69 7.67 -0.62 7.34 -3 7 C-1.125 1.125 -1.125 1.125 0 0 Z " fill="#A0C3C5" transform="translate(38,45)"/>
<path d="M0 0 C0.99 0 1.98 0 3 0 C3 0.99 3 1.98 3 3 C2.01 3 1.02 3 0 3 C0 2.01 0 1.02 0 0 Z " fill="#343434" transform="translate(389,111)"/>
</svg>
